<svg xmlns="http://www.w3.org/2000/svg" viewBox="0 0 100 100" width="100" height="100">
  <!-- 背景圆形 -->
  <circle cx="50" cy="50" r="45" fill="#4CAF50"/>
  
  <!-- 叶子形状 -->
  <path d="M50,15 C30,25 20,45 30,65 C40,75 50,75 60,65 C70,45 60,25 50,15 Z" fill="#81C784"/>
  
  <!-- 叶脉 -->
  <path d="M50,20 L50,60" stroke="#2E7D32" stroke-width="2"/>
  <path d="M50,30 L40,40" stroke="#2E7D32" stroke-width="1.5"/>
  <path d="M50,30 L60,40" stroke="#2E7D32" stroke-width="1.5"/>
  <path d="M50,40 L40,50" stroke="#2E7D32" stroke-width="1.5"/>
  <path d="M50,40 L60,50" stroke="#2E7D32" stroke-width="1.5"/>
  
  <!-- 小虫子 -->
  <ellipse cx="35" cy="40" rx="5" ry="3" fill="#F44336"/>
  <circle cx="32" cy="39" r="1" fill="white"/>
  <circle cx="38" cy="39" r="1" fill="white"/>
  
  <!-- 放大镜 -->
  <circle cx="65" cy="55" r="8" fill="none" stroke="white" stroke-width="2"/>
  <line x1="71" y1="61" x2="77" y2="67" stroke="white" stroke-width="2" stroke-linecap="round"/>
</svg>